<?xml version="1.0" encoding="utf-8"?>
<!-- Generator: Adobe Illustrator 24.3.0, SVG Export Plug-In . SVG Version: 6.00 Build 0)  -->
<svg fill="#5c1c72" version="1.1" xmlns="http://www.w3.org/2000/svg" xmlns:xlink="http://www.w3.org/1999/xlink" x="0px" y="0px"
	 viewBox="0 0 100 100.9" style="enable-background:new 0 0 100 100.9;" xml:space="preserve">
<g id="Layer_2">
</g>
<g id="Layer_1">
	<g>
		<path d="M82.1,9.4h-9.2V5.3c0-1.5-1.2-2.7-2.7-2.7s-2.7,1.2-2.7,2.7v14.1c-1.6,0.9-2.7,2.6-2.7,4.6c0,3,2.4,5.4,5.4,5.4
			s5.4-2.4,5.4-5.4c0-2-1.1-3.6-2.7-4.6v-4.6h9.2c5.6,0,10,4.5,10,10v8.3H7.9v-8.3c0-5.5,4.5-10,10-10h4.7V9.4h-4.7
			c-8.5,0-15.4,6.9-15.4,15.4V82c0,8.5,6.9,15.4,15.4,15.4h64.2c8.5,0,15.4-6.9,15.4-15.4V24.8C97.5,16.3,90.6,9.4,82.1,9.4z
			 M92.1,82c0,5.6-4.5,10-10,10H17.9c-5.6,0-10-4.5-10-10V38.5h84.3V82H92.1z"/>
		<path d="M24.6,60.7h4.5c3.2,0,5.8-2.6,5.8-5.8s-2.6-5.8-5.8-5.8h-4.5c-3.2,0-5.8,2.6-5.8,5.8C18.9,58.1,21.4,60.7,24.6,60.7z"/>
		<path d="M47.8,60.7h4.5c3.2,0,5.8-2.6,5.8-5.8s-2.6-5.8-5.8-5.8h-4.5c-3.2,0-5.8,2.6-5.8,5.8C42,58.1,44.6,60.7,47.8,60.7z"/>
		<path d="M71,60.7h4.5c3.2,0,5.8-2.6,5.8-5.8s-2.6-5.8-5.8-5.8H71c-3.2,0-5.8,2.6-5.8,5.8C65.2,58.1,67.8,60.7,71,60.7z"/>
		<path d="M24.6,81.2h4.5c3.2,0,5.8-2.6,5.8-5.8c0-3.2-2.6-5.8-5.8-5.8h-4.5c-3.2,0-5.8,2.6-5.8,5.8C18.9,78.6,21.4,81.2,24.6,81.2z
			"/>
		<path d="M47.8,81.2h4.5c3.2,0,5.8-2.6,5.8-5.8c0-3.2-2.6-5.8-5.8-5.8h-4.5c-3.2,0-5.8,2.6-5.8,5.8S44.6,81.2,47.8,81.2z"/>
		<path d="M71,81.2h4.5c3.2,0,5.8-2.6,5.8-5.8c0-3.2-2.6-5.8-5.8-5.8H71c-3.2,0-5.8,2.6-5.8,5.8S67.8,81.2,71,81.2z"/>
		<path d="M29.8,29.3c3,0,5.4-2.4,5.4-5.4c0-2-1.1-3.6-2.7-4.6v-4.6h30.6V9.4H32.5V5.3c0-1.5-1.2-2.7-2.7-2.7s-2.7,1.2-2.7,2.7v14.1
			c-1.6,0.9-2.7,2.6-2.7,4.6C24.4,26.9,26.8,29.3,29.8,29.3z"/>
	</g>
</g>
</svg>
